# xmcd
#
# Track frame offsets:
#	150
#	12429
#	22264
#	33235
#	43880
#	55365
#	65732
#	74939
#	85210
#	95258
#	106333
#	118070
#	128672
#	138166
#	146883
#	159784
#	173291
#	183389
#	190081
#	199255
#	213570
#	223329
#	236048
#	248010
#	261958
#	272951
#	285415
#	298295
#	309761
#	322014
#	331501
#
# Disc length: 4685 seconds
#
# Revision: 1
# Processed by: cddbd v1.5.2PL0 Copyright (c) Steve Scherf et al.
# Submitted via: audiograbber 1.83.01
#
DISCID=e0124b1f
DTITLE=Various Artist - Twisted Tales From the Vinyl Wasteland - Vol. 10
DYEAR=1900
DGENRE=Country
TTITLE0=Billy Barton - Wanted Man (Fire 1011)
TTITLE1=Ray Phillips - Twenty Cigarettes (Boyd 7631)
TTITLE2=Bailey Anderson - Folsom Prison Blues (Satin 008)
TTITLE3=Jimmie Piper - Bonfire (Royce 0001)
TTITLE4=Danny Dill - He's Biding His Time (Cub [no number])
TTITLE5=Keith Anderson - Locked Up Again (Ran-Del 934)
TTITLE6=Forrest Green and his Rangers - Poverty (Ranger 412)
TTITLE7=Connie Hall - The Bottle or Me (Mercury)
TTITLE8=Doug Lavalley - 190 More Days (Sioux 5170)
TTITLE9=Earl Brooks - Thirteen Minutes (Nabor 129)
TTITLE10=Bill Anderson - Dead or Alive (Decca 9-30993)
TTITLE11=John Ashley - The Net (Dot 15942)
TTITLE12=Linda Leigh - The Secret (American International 547)
TTITLE13=Bob Fryfogle - Six Feet Under (Wedge 1017)
TTITLE14=Ray Stone - Twenty-One Men (TNT 169)
TTITLE15=Charles (Shorty) Brown - One Gallus Brown (Mohawk 104)
TTITLE16=Joey Delton - Slippin', Slidin, and Fightin' (Star-Pac 5009)
TTITLE17=Yodelin' Shorty - The Crazy Laughin' Blues (Countryside 215)
TTITLE18=Bill Carlisle - Doctor R.D. (Hickory 1418)
TTITLE19=Rod Hart and the Nashville Addix - Blind Vietnam Vet (Capitol Star 90670
TTITLE19=)
TTITLE20=Lonnie Holt - Overton Hanging (Re-Echo 6-2328-69)
TTITLE21=Jim Nesbitt - Please Mr. Kennedy (Ace 621)
TTITLE22=Bart Mattson - Love Slave (Tampa 137)
TTITLE23=Lalo Guerrero - Pancho Lopez (Real 1301)
TTITLE24=Gloria Becker - Sixteen Pounds (Real 1304)
TTITLE25=Big Daddy - Daniel Webster and the Devil (Wynne 106)
TTITLE26=Joe Subway - How to Sell Stereo (Mad 1201)
TTITLE27=Hoagy Carmichael - I Walk the Line (Coral 9-61717)
TTITLE28=Bud Freeman - Please Tell the World (A Message from the Grave) (Kimber
TTITLE28=ly)
TTITLE29=Carl Shook - Broadcaster's Prayer (WSLM Radio Ridge 100)
TTITLE30=Unknown Artist - Burp Concerto (Can-Dy-Co 1000)
EXTD=
EXTT0=
EXTT1=
EXTT2=
EXTT3=
EXTT4=
EXTT5=
EXTT6=
EXTT7=
EXTT8=
EXTT9=
EXTT10=
EXTT11=
EXTT12=
EXTT13=
EXTT14=
EXTT15=
EXTT16=
EXTT17=
EXTT18=
EXTT19=
EXTT20=
EXTT21=
EXTT22=
EXTT23=
EXTT24=
EXTT25=
EXTT26=
EXTT27=
EXTT28=
EXTT29=
EXTT30=
PLAYORDER=
